<?xml version="1.0" standalone="no"?>
<!DOCTYPE svg PUBLIC "-//W3C//DTD SVG 20010904//EN"
 "http://www.w3.org/TR/2001/REC-SVG-20010904/DTD/svg10.dtd">
<svg version="1.0" xmlns="http://www.w3.org/2000/svg"
 width="500.000000pt" height="500.000000pt" viewBox="0 0 500.000000 500.000000"
 preserveAspectRatio="xMidYMid meet">
<g transform="translate(0.000000,500.000000) scale(0.100000,-0.100000)"
fill="#000000" stroke="none">
<path d="M1658 3423 c-37 -40 -45 -60 -57 -143 -6 -41 -14 -88 -16 -105 -4
-23 -1 -20 9 10 7 22 34 80 60 128 61 116 63 173 4 110z m2 -53 c0 -5 -5 -10
-11 -10 -5 0 -7 5 -4 10 3 6 8 10 11 10 2 0 4 -4 4 -10z"/>
<path d="M2193 3358 l-291 -92 -7 -103 c-12 -178 17 -393 76 -553 77 -207 222
-370 409 -457 115 -54 128 -53 245 6 163 82 271 186 354 342 68 126 119 336
121 499 3 151 0 245 -8 258 -8 11 -570 193 -595 191 -7 0 -143 -41 -304 -91z
m591 -32 c236 -73 271 -87 279 -107 13 -33 1 -329 -17 -416 -64 -315 -236
-540 -487 -639 l-62 -24 -74 31 c-225 94 -381 289 -454 567 -27 102 -32 139
-36 287 -3 94 -1 181 4 194 8 21 42 34 274 107 145 45 273 83 284 83 11 1 141
-37 289 -83z"/>
<path d="M2396 3338 c3 -5 10 -6 15 -3 13 9 11 12 -6 12 -8 0 -12 -4 -9 -9z"/>
<path d="M2445 3340 c-3 -6 1 -7 9 -4 18 7 21 14 7 14 -6 0 -13 -4 -16 -10z"/>
<path d="M2360 3336 c0 -2 7 -7 16 -10 8 -3 12 -2 9 4 -6 10 -25 14 -25 6z"/>
<path d="M2524 3304 c-18 -15 -18 -15 2 -5 12 6 25 7 29 3 5 -4 5 -1 1 6 -9
15 -8 15 -32 -4z"/>
<path d="M2465 3254 c-19 -20 -16 -43 8 -58 37 -23 77 35 41 61 -23 17 -29 16
-49 -3z"/>
<path d="M2205 3221 c-3 -5 -2 -12 3 -15 5 -3 9 1 9 9 0 17 -3 19 -12 6z"/>
<path d="M2403 3215 c0 -8 4 -12 9 -9 5 3 6 10 3 15 -9 13 -12 11 -12 -6z"/>
<path d="M2120 3170 c-9 -17 -9 -25 4 -38 13 -16 10 -37 -35 -216 -28 -110
-48 -205 -45 -212 9 -24 70 -54 109 -54 44 0 92 22 106 48 7 13 -4 73 -40 216
-27 109 -47 202 -43 207 11 18 52 8 154 -41 58 -27 111 -50 117 -50 10 0 13
-60 13 -270 l0 -270 -35 0 c-28 0 -35 -4 -35 -20 0 -16 -7 -20 -30 -20 -20 0
-30 -5 -30 -15 0 -13 26 -15 175 -15 149 0 175 2 175 15 0 10 -11 15 -35 15
-28 0 -35 4 -35 20 0 17 -7 20 -42 20 l-43 0 0 270 c0 262 1 270 20 276 11 3
59 23 106 45 89 41 146 56 165 42 8 -6 -3 -65 -37 -198 -27 -104 -48 -199 -46
-210 6 -51 115 -82 177 -50 53 27 53 35 -1 248 -40 159 -47 201 -38 216 23 35
-15 76 -50 54 -9 -6 -42 -18 -74 -27 -32 -9 -88 -33 -124 -52 -84 -44 -98 -44
-98 1 0 27 4 35 18 35 9 0 17 7 17 15 0 12 -14 15 -70 15 -56 0 -70 -3 -70
-15 0 -8 9 -15 20 -15 17 0 20 -7 20 -39 0 -39 14 -63 23 -39 3 10 9 9 21 -3
15 -14 15 -17 1 -29 -13 -11 -18 -8 -36 14 -11 14 -26 26 -33 26 -7 0 -43 16
-81 36 -62 33 -149 68 -202 81 -15 3 -25 -1 -33 -17z m50 -14 c0 -3 -4 -8 -10
-11 -5 -3 -10 -1 -10 4 0 6 5 11 10 11 6 0 10 -2 10 -4z m676 -14 c1 -7 0 -8
-3 -2 -2 5 -9 8 -14 4 -5 -3 -9 0 -9 6 0 15 23 7 26 -8z m-341 -2 c-3 -5 -12
-10 -18 -10 -7 0 -6 4 3 10 19 12 23 12 15 0z m-5 -52 c0 -19 -16 -5 -17 14
-2 18 0 20 7 8 5 -8 10 -18 10 -22z m-350 -182 l0 -184 -45 0 c-25 1 -45 4
-45 7 0 12 84 361 87 361 2 0 3 -83 3 -184z m61 -14 c21 -90 39 -165 39 -168
0 -2 -20 -4 -45 -4 l-45 0 1 188 c1 103 3 178 6 167 2 -11 22 -93 44 -183z
m627 -74 l-3 -92 -42 -3 c-28 -1 -43 3 -43 10 0 7 19 91 43 187 l42 175 3 -93
c1 -50 1 -133 0 -184z m102 -89 c0 -4 -20 -7 -45 -7 l-45 -1 1 182 0 182 44
-175 c24 -96 44 -178 45 -181z m-440 18 c-1 -242 -1 -253 19 -276 18 -19 24
-21 36 -11 9 7 18 10 22 6 3 -3 1 -6 -6 -6 -7 0 -10 -3 -8 -7 3 -5 -27 -8 -67
-8 l-72 0 31 20 30 21 0 261 c0 144 4 259 8 256 4 -2 7 -118 7 -256z m-343
-61 c0 -8 -6 -12 -15 -9 -11 5 -11 7 0 14 7 5 13 9 14 9 0 0 1 -6 1 -14z m663
4 c0 -5 -5 -10 -11 -10 -5 0 -7 5 -4 10 3 6 8 10 11 10 2 0 4 -4 4 -10z m85 2
c-8 -8 -55 -11 -55 -3 0 4 14 8 30 8 17 0 28 -2 25 -5z"/>
<path d="M2941 3054 c0 -11 3 -14 6 -6 3 7 2 16 -1 19 -3 4 -6 -2 -5 -13z"/>
<path d="M2705 3029 c-4 -6 -5 -12 -2 -15 2 -3 7 2 10 11 7 17 1 20 -8 4z"/>
<path d="M2286 2787 c3 -10 9 -15 12 -12 3 3 0 11 -7 18 -10 9 -11 8 -5 -6z"/>
<path d="M2886 2513 c-6 -14 -5 -15 5 -6 7 7 10 15 7 18 -3 3 -9 -2 -12 -12z"/>
<path d="M2136 2503 c-6 -14 -5 -15 5 -6 7 7 10 15 7 18 -3 3 -9 -2 -12 -12z"/>
<path d="M2326 2508 c3 -5 10 -6 15 -3 13 9 11 12 -6 12 -8 0 -12 -4 -9 -9z"/>
<path d="M2698 2483 c7 -3 16 -2 19 1 4 3 -2 6 -13 5 -11 0 -14 -3 -6 -6z"/>
<path d="M2806 2412 c-2 -4 -1 -14 4 -22 7 -11 9 -9 7 8 -1 24 -3 26 -11 14z"/>
<path d="M2682 2391 c-11 -6 -10 -10 4 -15 9 -3 19 -4 22 -1 3 3 -1 5 -9 5
-11 0 -11 2 1 10 8 5 11 10 5 10 -5 0 -16 -4 -23 -9z"/>
<path d="M2737 2329 c7 -7 15 -10 18 -7 3 3 -2 9 -12 12 -14 6 -15 5 -6 -5z"/>
<path d="M3300 3425 c0 -13 19 -59 41 -102 23 -43 50 -100 60 -128 11 -27 17
-38 14 -23 -3 14 -10 62 -16 104 -12 87 -19 106 -57 147 -32 33 -42 34 -42 2z"/>
<path d="M1745 3399 c-4 -6 -5 -12 -2 -15 2 -3 7 2 10 11 7 17 1 20 -8 4z"/>
<path d="M3288 3328 c10 -13 10 -17 0 -21 -11 -4 -10 -6 0 -6 8 -1 10 -6 6
-13 -4 -7 -3 -9 1 -5 15 13 14 36 -3 49 -15 11 -15 11 -4 -4z"/>
<path d="M1525 3311 c-3 -5 -2 -12 3 -15 5 -3 9 1 9 9 0 17 -3 19 -12 6z"/>
<path d="M3445 3311 c-3 -5 -2 -12 3 -15 5 -3 9 1 9 9 0 17 -3 19 -12 6z"/>
<path d="M1723 3295 c0 -8 4 -12 9 -9 5 3 6 10 3 15 -9 13 -12 11 -12 -6z"/>
<path d="M1860 3281 c0 -6 4 -12 8 -15 5 -3 9 1 9 9 0 8 -4 15 -9 15 -4 0 -8
-4 -8 -9z"/>
<path d="M1526 3248 c-11 -44 -5 -93 18 -141 13 -26 21 -58 19 -71 -5 -22 -6
-22 -44 18 -32 35 -39 38 -39 20 0 -38 32 -129 62 -173 16 -24 35 -71 42 -105
l13 -61 0 62 c0 56 4 69 41 125 41 63 92 168 92 190 0 7 -23 -10 -50 -37 -54
-53 -100 -133 -100 -174 l-1 -26 -14 25 c-8 15 -10 29 -4 36 5 6 6 13 3 16 -3
3 1 39 10 78 12 60 22 80 53 114 70 74 86 96 80 102 -3 4 -22 -4 -41 -16 -24
-14 -45 -41 -65 -83 -26 -53 -31 -58 -31 -33 0 43 -22 156 -31 156 -3 0 -9
-10 -13 -22z m175 -181 c-10 -9 -11 -8 -5 6 3 10 9 15 12 12 3 -3 0 -11 -7
-18z m-153 -122 c-3 -3 -9 2 -12 12 -6 14 -5 15 5 6 7 -7 10 -15 7 -18z"/>
<path d="M3442 3206 c-7 -35 -12 -76 -13 -92 0 -27 -2 -26 -20 16 -22 48 -48
80 -91 112 -47 33 -33 -3 25 -68 64 -71 77 -92 78 -136 l1 -33 10 40 c5 22 10
48 11 57 1 9 4 15 8 12 19 -11 35 87 23 134 -10 37 -20 25 -32 -42z"/>
<path d="M1742 3235 c4 -4 -2 -15 -12 -24 -15 -12 -17 -20 -10 -31 9 -12 10
-12 8 5 -2 11 2 19 9 18 16 -3 25 25 10 33 -7 4 -9 4 -5 -1z"/>
<path d="M1851 3224 c0 -11 3 -14 6 -6 3 7 2 16 -1 19 -3 4 -6 -2 -5 -13z"/>
<path d="M1686 3138 c3 -5 10 -6 15 -3 13 9 11 12 -6 12 -8 0 -12 -4 -9 -9z"/>
<path d="M3206 3135 c-9 -26 -7 -32 5 -12 6 10 9 21 6 23 -2 3 -7 -2 -11 -11z"/>
<path d="M1477 3116 c-4 -10 -1 -13 8 -9 8 3 12 9 9 14 -7 12 -11 11 -17 -5z"/>
<path d="M3270 3112 c0 -25 48 -129 88 -191 35 -53 42 -73 43 -115 1 -50 1
-50 10 -16 5 19 6 45 4 58 -3 13 -1 21 6 20 27 -7 114 191 93 211 -3 3 -24
-14 -45 -38 -32 -36 -39 -51 -39 -85 l1 -41 15 28 c8 15 17 27 20 27 3 0 -3
-16 -15 -36 -12 -19 -21 -43 -22 -52 0 -9 -7 4 -14 30 -7 26 -24 67 -38 90
-28 48 -107 129 -107 110z"/>
<path d="M3366 3072 c-3 -5 1 -9 9 -9 8 0 12 4 9 9 -3 4 -7 8 -9 8 -2 0 -6 -4
-9 -8z"/>
<path d="M1698 2922 c-20 -23 -46 -59 -57 -80 -24 -46 -40 -149 -22 -138 7 5
11 -3 11 -24 0 -32 -19 -38 -28 -10 -3 8 0 10 8 5 9 -5 11 -4 6 4 -4 6 -11 9
-15 6 -5 -2 -17 5 -27 18 l-19 22 23 -19 c12 -11 22 -16 22 -11 0 10 -110 175
-117 175 -8 0 7 -71 22 -100 8 -15 35 -50 62 -80 26 -29 53 -69 59 -89 l11
-36 1 55 c1 45 10 73 52 156 42 84 51 109 48 144 l-3 43 -37 -41z m-19 -107
c-17 -25 -33 -45 -36 -45 -3 0 0 6 6 13 6 8 8 17 4 20 -3 4 0 13 7 22 7 8 9
15 4 15 -4 0 1 6 11 14 34 24 35 7 4 -39z"/>
<path d="M3259 2956 c-16 -17 6 -99 48 -181 37 -71 47 -101 47 -140 1 -79 -10
-146 -25 -156 -7 -4 -10 -11 -6 -15 13 -14 112 73 138 122 53 98 46 104 -30
29 -48 -47 -71 -64 -71 -52 0 36 31 91 84 148 33 35 57 71 61 91 4 18 9 42 12
53 5 18 4 18 -11 6 -9 -8 -15 -20 -12 -28 3 -8 1 -11 -4 -8 -10 6 -100 -125
-100 -147 0 -7 -4 -20 -10 -28 -5 -9 -7 14 -3 62 5 65 3 83 -15 120 -25 49
-94 133 -103 124z m25 -42 c3 -8 2 -12 -4 -9 -6 3 -10 10 -10 16 0 14 7 11 14
-7z m28 -54 c2 -8 12 -23 22 -32 11 -10 14 -18 7 -18 -7 0 -9 -5 -5 -12 5 -7
3 -8 -5 -4 -13 9 -33 51 -36 79 -2 20 12 10 17 -13z m55 -162 c-3 -8 -6 -5 -6
6 -1 11 2 17 5 13 3 -3 4 -12 1 -19z m13 -183 c-7 -8 -17 -15 -22 -15 -6 0 -5
7 2 15 7 8 17 15 22 15 6 0 5 -7 -2 -15z"/>
<path d="M3505 2929 c-4 -6 -5 -12 -2 -15 2 -3 7 2 10 11 7 17 1 20 -8 4z"/>
<path d="M1467 2910 c7 -8 20 -15 29 -16 9 -1 13 1 9 4 -4 4 -10 7 -13 7 -4 0
-14 4 -22 9 -12 7 -13 6 -3 -4z"/>
<path d="M1810 2819 c0 -5 5 -7 12 -3 8 5 9 1 4 -12 -5 -14 -4 -16 5 -7 6 6 8
16 5 22 -9 14 -26 14 -26 0z"/>
<path d="M1444 2789 c-3 -6 -2 -15 4 -21 6 -6 12 -6 17 3 6 8 4 10 -5 4 -10
-6 -12 -4 -7 8 7 19 2 23 -9 6z"/>
<path d="M3200 2800 c-2 -36 28 -140 61 -211 48 -105 47 -131 -5 -213 -56 -88
-59 -100 -8 -32 12 16 22 26 22 22 0 -17 -54 -76 -61 -69 -5 5 -2 43 7 84 21
95 14 146 -31 224 l-34 60 -1 -88 c0 -63 6 -110 21 -159 35 -114 21 -148 -93
-233 -31 -24 -54 -45 -51 -48 9 -10 42 12 104 69 33 30 83 70 112 88 72 46
158 136 131 136 -3 0 -26 -14 -51 -30 -25 -17 -48 -29 -50 -26 -3 3 5 19 17
36 22 31 26 46 36 156 5 49 2 68 -14 101 -18 35 -111 146 -112 133z m40 -65
c0 -5 -5 -3 -10 5 -5 8 -10 20 -10 25 0 6 5 3 10 -5 5 -8 10 -19 10 -25z m56
-115 c2 -36 1 -39 -11 -24 -7 10 -10 25 -7 33 3 9 1 12 -6 7 -8 -5 -10 -2 -6
8 3 9 1 16 -4 16 -6 0 -10 9 -9 20 1 20 1 20 21 1 11 -12 20 -36 22 -61z m21
-87 c-3 -10 -5 -4 -5 12 0 17 2 24 5 18 2 -7 2 -21 0 -30z m-121 -31 c2 -23 0
-43 -4 -46 -4 -2 -8 3 -9 12 0 9 -3 35 -7 56 -4 28 -2 36 5 29 6 -6 13 -29 15
-51z m1 -104 c-3 -8 -6 -5 -6 6 -1 11 2 17 5 13 3 -3 4 -12 1 -19z"/>
<path d="M1767 2783 c-10 -10 -8 -25 2 -19 5 4 7 -4 3 -16 -5 -20 -6 -20 -12
-4 -5 16 -10 14 -35 -15 -41 -49 -65 -107 -64 -159 0 -45 0 -45 15 -20 8 14
13 17 10 7 -3 -10 -6 -34 -6 -54 0 -20 -4 -33 -11 -31 -6 2 -11 8 -11 13 0 6
-4 15 -10 22 -5 7 -7 22 -4 35 3 13 3 18 0 11 -3 -7 -33 18 -74 60 -59 61 -69
68 -70 49 0 -13 4 -21 9 -18 5 4 7 -2 5 -11 -2 -10 9 -36 24 -58 34 -49 130
-128 144 -119 7 5 8 2 4 -5 -5 -7 -2 -20 6 -29 8 -9 27 -37 42 -62 l28 -45
-28 30 c-35 37 -124 100 -124 87 0 -19 75 -95 131 -133 33 -22 92 -69 131
-105 40 -35 78 -64 85 -64 22 0 14 15 -19 34 -51 31 -110 89 -124 123 -15 35
-12 63 18 164 13 46 18 88 16 140 l-3 74 -34 -60 c-28 -48 -36 -73 -39 -128
-4 -59 5 -121 24 -170 4 -11 0 -15 -13 -12 -10 1 -17 8 -16 14 2 6 -11 34 -28
63 -49 83 -50 123 -1 226 51 109 69 226 29 185z m-23 -100 c-7 -16 -14 -36
-14 -45 0 -10 -5 -18 -11 -18 -5 0 -8 -4 -5 -9 3 -5 -1 -11 -9 -15 -11 -4 -14
0 -11 17 3 12 5 27 5 33 1 11 46 64 55 64 3 0 -2 -12 -10 -27z m78 -148 c0 -5
-5 -10 -11 -11 -8 -2 -7 -1 0 3 8 4 7 8 -2 15 -11 8 -11 9 -1 6 8 -2 14 -8 14
-13z m-187 -25 c10 -11 16 -20 13 -20 -3 0 -13 9 -23 20 -10 11 -16 20 -13 20
3 0 13 -9 23 -20z m185 -35 c0 -5 -5 -3 -10 5 -5 8 -10 20 -10 25 0 6 5 3 10
-5 5 -8 10 -19 10 -25z m-23 -102 c-3 -10 -5 -2 -5 17 0 19 2 27 5 18 2 -10 2
-26 0 -35z"/>
<path d="M1450 2616 c0 -2 7 -7 16 -10 8 -3 12 -2 9 4 -6 10 -25 14 -25 6z"/>
<path d="M1923 2579 c-2 -23 3 -25 10 -4 4 8 3 16 -1 19 -4 3 -9 -4 -9 -15z"/>
<path d="M2016 2397 c-16 -12 -16 -13 2 -13 10 0 19 6 19 13 0 7 -1 13 -2 13
-1 0 -9 -6 -19 -13z"/>
<path d="M1605 2381 c-3 -5 -2 -12 3 -15 5 -3 9 1 9 9 0 17 -3 19 -12 6z"/>
<path d="M2089 2318 c-7 -28 -4 -34 15 -35 11 -1 15 1 8 4 -6 3 -10 9 -7 13 3
5 1 11 -5 15 -5 3 -10 5 -11 3z"/>
<path d="M2835 2249 c-4 -6 -5 -12 -2 -15 2 -3 7 2 10 11 7 17 1 20 -8 4z"/>
<path d="M2856 2233 c-6 -14 -5 -15 5 -6 7 7 10 15 7 18 -3 3 -9 -2 -12 -12z"/>
<path d="M1770 2216 c7 -7 13 -7 20 0 6 6 3 10 -10 10 -13 0 -16 -4 -10 -10z"/>
<path d="M2253 2157 c0 -8 6 -14 14 -14 9 0 10 4 2 14 -6 7 -12 13 -14 13 -1
0 -2 -6 -2 -13z"/>
<path d="M2289 2133 c-12 -16 -12 -17 2 -6 11 9 19 9 26 2 8 -8 13 -7 18 3 5
7 5 10 0 6 -4 -4 -14 -3 -20 2 -9 7 -17 5 -26 -7z"/>
<path d="M2703 2135 c0 -8 4 -12 9 -9 5 3 6 10 3 15 -9 13 -12 11 -12 -6z"/>
<path d="M1965 2031 c-3 -5 -2 -12 3 -15 5 -3 9 1 9 9 0 17 -3 19 -12 6z"/>
<path d="M2140 2030 c-9 -6 -10 -10 -3 -10 6 0 15 5 18 10 8 12 4 12 -15 0z"/>
<path d="M2300 2037 c0 -2 6 -10 14 -16 11 -9 16 -9 22 1 4 7 4 10 -1 6 -4 -4
-14 -3 -22 3 -7 6 -13 9 -13 6z"/>
<path d="M2003 2015 c0 -7 6 -11 14 -8 7 3 13 6 13 8 0 2 -6 5 -13 8 -8 3 -14
-1 -14 -8z"/>
<path d="M2800 2020 c8 -5 20 -10 25 -10 6 0 3 5 -5 10 -8 5 -19 10 -25 10 -5
0 -3 -5 5 -10z"/>
<path d="M2428 2013 c7 -3 16 -2 19 1 4 3 -2 6 -13 5 -11 0 -14 -3 -6 -6z"/>
<path d="M2263 1970 c-56 -22 -68 -111 -20 -145 24 -17 74 -20 97 -5 23 14 6
22 -24 10 -23 -8 -31 -6 -52 15 -28 28 -31 61 -8 93 19 28 54 29 61 2 3 -11 9
-20 13 -20 10 0 20 39 12 44 -19 10 -60 13 -79 6z"/>
<path d="M2490 1969 c-19 -3 -29 -7 -22 -8 6 0 12 -14 12 -31 0 -27 -3 -30
-34 -30 -31 0 -33 2 -28 28 3 15 10 30 16 34 6 4 -7 8 -28 8 -31 0 -37 -3 -28
-12 7 -7 12 -37 12 -68 0 -31 -5 -61 -12 -68 -9 -9 -3 -12 28 -11 21 0 33 3
27 6 -7 2 -13 20 -13 39 0 31 3 34 30 34 27 0 30 -3 30 -34 0 -19 -6 -37 -12
-39 -7 -3 5 -6 27 -6 30 -1 36 2 27 11 -15 15 -16 120 0 136 16 16 9 19 -32
11z"/>
<path d="M1968 1958 c7 -7 12 -37 12 -68 0 -31 -5 -61 -12 -68 -9 -9 -3 -12
28 -12 21 0 34 4 28 8 -6 4 -13 19 -16 35 -7 39 15 34 38 -8 14 -26 25 -35 44
-35 21 1 23 2 10 13 -8 7 -23 24 -32 38 -15 24 -15 26 3 37 22 14 25 42 7 60
-7 7 -37 12 -67 12 -43 0 -52 -3 -43 -12z m86 -21 c9 -15 7 -21 -8 -33 -30
-21 -36 -17 -36 22 0 28 4 35 16 32 9 -2 22 -11 28 -21z"/>
<path d="M2127 1962 c18 -12 20 -132 2 -143 -10 -6 -1 -9 26 -9 30 0 36 3 27
12 -7 7 -12 37 -12 68 0 31 5 61 12 68 9 9 3 12 -27 12 -23 0 -35 -4 -28 -8z"/>
<path d="M2610 1958 c-1 -7 -16 -43 -34 -80 -32 -67 -32 -68 -11 -68 18 0 21
5 17 25 -4 23 -1 25 31 25 37 0 54 -19 34 -39 -8 -8 -1 -11 27 -11 34 0 37 2
25 16 -7 9 -26 44 -41 78 -25 58 -48 83 -48 54z m19 -58 c9 -28 8 -30 -14 -30
-22 0 -23 2 -14 30 6 17 12 30 14 30 2 0 8 -13 14 -30z"/>
<path d="M2728 1963 c16 -6 16 -125 0 -141 -9 -9 -3 -12 27 -12 30 0 36 3 27
12 -15 15 -16 58 -2 58 6 0 18 -16 27 -35 12 -26 23 -35 41 -35 l24 0 -30 38
c-29 37 -30 39 -11 50 21 14 25 42 7 60 -7 7 -37 12 -67 11 -31 0 -50 -3 -43
-6z m76 -9 c19 -7 21 -35 4 -52 -23 -23 -38 -13 -38 23 0 35 5 40 34 29z"/>
<path d="M2898 1958 c16 -16 16 -120 0 -136 -23 -23 86 -15 116 9 35 28 38
100 4 123 -28 20 -139 23 -120 4z m94 -15 c27 -24 24 -87 -4 -107 -41 -29 -48
-21 -48 54 0 59 3 70 17 70 9 0 25 -7 35 -17z"/>
<path d="M2310 1881 c0 -6 4 -13 10 -16 6 -3 7 1 4 9 -7 18 -14 21 -14 7z"/>
<path d="M1949 1788 c7 -9 9 -23 5 -30 -6 -10 -4 -11 7 0 11 10 10 15 -6 30
-17 15 -18 15 -6 0z"/>
<path d="M2816 1747 c3 -10 9 -15 12 -12 3 3 0 11 -7 18 -10 9 -11 8 -5 -6z"/>
<path d="M1927 1670 c-20 -46 -22 -60 -11 -60 8 0 13 6 12 13 -2 7 9 13 26 15
23 3 28 0 23 -12 -5 -12 0 -16 17 -16 l23 0 -29 57 c-16 31 -30 58 -32 60 -1
2 -14 -24 -29 -57z m36 0 c3 -13 0 -20 -9 -20 -8 0 -14 9 -14 20 0 11 4 20 9
20 5 0 11 -9 14 -20z"/>
<path d="M2068 1719 c6 -7 12 -32 12 -55 0 -25 -5 -44 -12 -47 -7 -3 6 -6 30
-6 54 -1 87 28 77 67 -9 38 -17 44 -72 49 -39 5 -46 3 -35 -8z m80 -49 c3 -32
-9 -50 -35 -50 -9 0 -13 17 -13 50 0 47 1 49 23 41 15 -6 23 -18 25 -41z"/>
<path d="M2246 1683 c13 -27 24 -54 24 -60 0 -28 19 -10 41 40 12 28 25 55 27
60 2 4 -6 7 -18 7 -15 0 -20 -5 -16 -15 3 -8 0 -29 -6 -47 l-11 -32 -12 34
c-7 19 -10 41 -7 48 2 7 -5 12 -21 12 l-24 0 23 -47z"/>
<path d="M2406 1715 c-41 -41 -20 -105 34 -105 53 0 78 62 40 100 -24 24 -53
26 -74 5z m66 -33 c7 -24 -8 -62 -25 -62 -33 0 -51 62 -25 88 14 14 44 0 50
-26z"/>
<path d="M2572 1714 c-26 -18 -30 -65 -6 -88 17 -18 69 -22 79 -6 4 6 -5 7
-24 4 -23 -5 -31 -2 -41 16 -24 45 12 96 45 64 13 -13 15 -13 15 -1 0 13 -20
27 -39 27 -3 0 -17 -7 -29 -16z"/>
<path d="M2723 1673 c-27 -57 -28 -63 -12 -63 12 0 16 5 13 15 -5 11 1 15 21
15 20 0 26 -4 21 -15 -4 -11 1 -15 18 -15 l24 0 -22 48 c-13 26 -25 54 -28 62
-3 9 -17 -9 -35 -47z m37 -15 c0 -5 -7 -8 -15 -8 -17 0 -18 2 -9 25 5 13 8 14
15 3 5 -7 9 -16 9 -20z"/>
<path d="M2861 1707 c0 -12 3 -16 6 -9 2 6 10 12 17 12 13 0 15 -67 3 -88 -6
-8 -1 -12 15 -12 22 0 23 3 20 57 -2 51 -1 56 11 41 15 -19 29 -14 21 7 -4 8
-22 13 -50 13 -39 0 -44 -2 -43 -21z"/>
<path d="M3008 1718 c16 -16 16 -95 0 -101 -7 -3 8 -6 33 -6 33 -1 49 3 53 14
3 8 1 15 -4 15 -6 0 -10 -4 -10 -10 0 -5 -9 -10 -20 -10 -14 0 -20 7 -20 21 0
15 5 19 18 15 11 -4 19 -1 20 6 1 7 4 25 8 41 6 27 6 27 -42 27 -37 0 -45 -3
-36 -12z m58 -33 c-21 -21 -26 -19 -26 10 0 23 2 24 20 15 18 -10 19 -13 6
-25z"/>
<path d="M1577 1709 c7 -7 15 -10 18 -7 3 3 -2 9 -12 12 -14 6 -15 5 -6 -5z"/>
<path d="M1050 1653 c0 -10 56 -13 245 -13 189 0 245 3 245 13 0 9 -56 12
-245 12 -189 0 -245 -3 -245 -12z"/>
<path d="M3460 1653 c0 -10 56 -13 245 -13 189 0 245 3 245 13 0 9 -56 12
-245 12 -189 0 -245 -3 -245 -12z"/>
<path d="M2843 1615 c0 -8 4 -12 9 -9 5 3 6 10 3 15 -9 13 -12 11 -12 -6z"/>
<path d="M2970 1610 c-9 -6 -10 -10 -3 -10 6 0 15 5 18 10 8 12 4 12 -15 0z"/>
<path d="M2360 1601 c0 -6 4 -13 10 -16 6 -3 7 1 4 9 -7 18 -14 21 -14 7z"/>
<path d="M2315 1592 c3 -3 -1 -12 -7 -21 -8 -10 -4 -9 10 3 26 23 26 23 7 23
-8 0 -13 -3 -10 -5z"/>
<path d="M2534 1582 c0 -10 6 -19 13 -19 8 0 9 6 2 19 -5 10 -11 18 -12 18 -2
0 -3 -8 -3 -18z"/>
<path d="M2645 1590 c-3 -5 -5 -10 -3 -11 33 -8 38 -7 27 7 -14 17 -16 17 -24
4z"/>
<path d="M1936 1582 c-3 -5 1 -9 9 -9 8 0 12 4 9 9 -3 4 -7 8 -9 8 -2 0 -6 -4
-9 -8z"/>
<path d="M2158 1583 c7 -3 16 -2 19 1 4 3 -2 6 -13 5 -11 0 -14 -3 -6 -6z"/>
<path d="M2866 1572 c-3 -5 1 -9 9 -9 8 0 12 4 9 9 -3 4 -7 8 -9 8 -2 0 -6 -4
-9 -8z"/>
</g>
</svg>
